<svg width="24" height="24" viewBox="0 0 24 24" fill="none" xmlns="http://www.w3.org/2000/svg">
<path fill-rule="evenodd" clip-rule="evenodd" d="M3.00004 8.4H1.8C1.35817 8.4 1 8.04183 1 7.6C1 7.15817 1.35817 6.8 1.8 6.8H3.00396C3.10894 4.13129 5.30559 2 8.00003 2H18C20.7614 2 23 4.23858 23 7V17C23 19.7614 20.7614 22 18 22H8.00003C5.3056 22 3.10895 19.8687 3.00396 17.2H1.8C1.35817 17.2 1 16.8418 1 16.4C1 15.9582 1.35817 15.6 1.8 15.6H3.00004V12.8H1.8C1.35817 12.8 1 12.4419 1 12C1 11.5582 1.35817 11.2 1.8 11.2H3.00004V8.4ZM14.4572 12.7071C15.0303 12.2685 15.3999 11.5774 15.3999 10.8C15.3999 9.47451 14.3254 8.39999 12.9999 8.39999C11.6745 8.39999 10.5999 9.47451 10.5999 10.8C10.5999 11.5774 10.9696 12.2685 11.5427 12.7071C10.2805 13.2665 9.39996 14.5304 9.39996 16H10.2C10.2 14.4536 11.4536 13.2 13 13.2C14.5464 13.2 15.8 14.4536 15.8 16H16.6C16.6 14.5304 15.7194 13.2665 14.4572 12.7071ZM13 12.4C13.8836 12.4 14.6 11.6836 14.6 10.8C14.6 9.91633 13.8836 9.19999 13 9.19999C12.1163 9.19999 11.4 9.91633 11.4 10.8C11.4 11.6836 12.1163 12.4 13 12.4Z" fill="#524151"/>
</svg>
