<svg width="24" height="24" viewBox="0 0 24 24" fill="none" xmlns="http://www.w3.org/2000/svg">
<path fill-rule="evenodd" clip-rule="evenodd" d="M18.6332 8.20475L21.6643 11.1344C22.1119 11.5677 22.1119 12.2687 21.6643 12.7013C21.4403 12.9178 21.1468 13.0256 20.8532 13.0256C20.5603 13.0256 20.2673 12.9179 20.0425 12.7013L12.4631 5.37546C12.2175 5.13881 11.7824 5.13881 11.5355 5.37617L3.95736 12.7013C3.50992 13.1345 2.78315 13.1345 2.33555 12.7013C1.88815 12.2687 1.88815 11.5676 2.33555 11.1344L9.91443 3.8094C11.0277 2.73148 12.9678 2.72957 14.0836 3.80745L16.3405 5.98885V4.82056C16.3405 4.20865 16.8535 3.71275 17.4861 3.71275C18.1202 3.71275 18.6332 4.20865 18.6332 4.82056V8.20475ZM11.6018 7.47906C11.8214 7.26636 12.1779 7.26636 12.3981 7.47906L19.0638 13.9203C19.1695 14.022 19.2287 14.1608 19.2287 14.3057V19.0038C19.2287 20.1062 18.3038 21 17.1633 21H13.8627V16.0597H10.1365V21H6.83593C5.69536 21 4.77052 20.1062 4.77052 19.0037V14.3057C4.77052 14.1608 4.83019 14.022 4.93544 13.9203L11.6018 7.47906Z" fill="#524151"/>
</svg>
