<svg width="24" height="24" viewBox="0 0 24 24" fill="none" xmlns="http://www.w3.org/2000/svg">
<path fill-rule="evenodd" clip-rule="evenodd" d="M16.5862 2H7.41382C4.42859 2 2 4.42859 2 7.41382V16.5863C2 19.5714 4.42859 22 7.41382 22H16.5863C19.5714 22 22 19.5714 22 16.5863V7.41382C22 4.42859 19.5714 2 16.5862 2ZM12 17.4686C8.98456 17.4686 6.5314 15.0154 6.5314 12C6.5314 8.98456 8.98456 6.5314 12 6.5314C15.0154 6.5314 17.4686 8.98456 17.4686 12C17.4686 15.0154 15.0154 17.4686 12 17.4686ZM17.5994 7.82108C16.7083 7.82108 15.9835 7.09628 15.9835 6.20517C15.9835 5.31406 16.7083 4.58911 17.5994 4.58911C18.4905 4.58911 19.2154 5.31406 19.2154 6.20517C19.2154 7.09628 18.4905 7.82108 17.5994 7.82108ZM12 7.70389C9.63124 7.70389 7.7039 9.63107 7.7039 12C7.7039 14.3688 9.63124 16.2961 12 16.2961C14.3689 16.2961 16.2961 14.3688 16.2961 12C16.2961 9.63107 14.3689 7.70389 12 7.70389ZM17.1559 6.20517C17.1559 5.96072 17.3549 5.76175 17.5994 5.76175C17.844 5.76175 18.0429 5.96057 18.0429 6.20517C18.0429 6.44977 17.844 6.64859 17.5994 6.64859C17.3549 6.64859 17.1559 6.44962 17.1559 6.20517Z" fill="#524151"/>
</svg>
