<svg width="22" height="18" viewBox="0 0 22 18" fill="none" xmlns="http://www.w3.org/2000/svg">
<g filter="url(#filter0_d_176_1479)">
<g clip-path="url(#clip0_176_1479)">
<mask id="mask0_176_1479" style="mask-type:alpha" maskUnits="userSpaceOnUse" x="3" y="1" width="16" height="12">
<rect x="3" y="1" width="16" height="12" fill="white"/>
</mask>
<g mask="url(#mask0_176_1479)">
</g>
<g clip-path="url(#clip1_176_1479)">
<path d="M19.5646 12.3251C19.2085 12.7526 18.6809 12.9999 18.1246 13.0001H3.87457C3.31819 12.9999 2.79063 12.7526 2.43457 12.3251L9.31207 6.59514L10.0246 7.08265C10.6115 7.48765 11.3877 7.48765 11.9746 7.08265L12.6871 6.59514L19.5646 12.3251Z" fill="#1E88E5"/>
<path d="M19.67 1.81742L12.6875 6.59489L11.975 7.0824C11.3881 7.4874 10.612 7.4874 10.025 7.0824L9.31252 6.59489L2.33008 1.80989C2.68143 1.30326 3.25852 1.0007 3.87509 0.999894H18.125C18.7444 0.996625 19.3243 1.30347 19.67 1.81742Z" fill="#64B5F6"/>
<path d="M9.31252 6.59499L2.43502 12.325C2.15353 11.9885 1.99951 11.5637 2.00003 11.125V2.87501C1.99775 2.49451 2.11303 2.12256 2.33004 1.81002L9.31252 6.59499Z" fill="#2196F3"/>
<path d="M20 2.87497V11.125C20.0005 11.5636 19.8465 11.9885 19.565 12.325L12.6875 6.59495L19.67 1.81747C19.8859 2.12776 20.0011 2.49694 20 2.87497Z" fill="#2196F3"/>
</g>
<rect x="3" y="1" width="16" height="12" fill="url(#paint0_linear_176_1479)" style="mix-blend-mode:overlay"/>
</g>
<rect x="3.5" y="1.5" width="15" height="11" rx="1.5" stroke="black" stroke-opacity="0.1" style="mix-blend-mode:multiply"/>
</g>
<defs>
<filter id="filter0_d_176_1479" x="0" y="0" width="22" height="18" filterUnits="userSpaceOnUse" color-interpolation-filters="sRGB">
<feFlood flood-opacity="0" result="BackgroundImageFix"/>
<feColorMatrix in="SourceAlpha" type="matrix" values="0 0 0 0 0 0 0 0 0 0 0 0 0 0 0 0 0 0 127 0" result="hardAlpha"/>
<feOffset dy="2"/>
<feGaussianBlur stdDeviation="1.5"/>
<feColorMatrix type="matrix" values="0 0 0 0 0 0 0 0 0 0 0 0 0 0 0 0 0 0 0.1 0"/>
<feBlend mode="normal" in2="BackgroundImageFix" result="effect1_dropShadow_176_1479"/>
<feBlend mode="normal" in="SourceGraphic" in2="effect1_dropShadow_176_1479" result="shape"/>
</filter>
<linearGradient id="paint0_linear_176_1479" x1="11" y1="1" x2="11" y2="13" gradientUnits="userSpaceOnUse">
<stop stop-color="white" stop-opacity="0.7"/>
<stop offset="1" stop-opacity="0.3"/>
</linearGradient>
<clipPath id="clip0_176_1479">
<rect x="3" y="1" width="16" height="12" rx="2" fill="white"/>
</clipPath>
<clipPath id="clip1_176_1479">
<rect width="18" height="18" fill="white" transform="translate(2 -2)"/>
</clipPath>
</defs>
</svg>
