<svg width="24" height="24" viewBox="0 0 24 24" fill="none" xmlns="http://www.w3.org/2000/svg">
<path fill-rule="evenodd" clip-rule="evenodd" d="M15.3333 5.70001H19.7083C20.975 5.70001 22 6.80701 22 8.17501V10.236L12.2 13.764C12.1333 13.791 12.0667 13.8 12 13.8C11.9333 13.8 11.8667 13.791 11.8 13.764L2 10.236V8.17501C2 6.80701 3.025 5.70001 4.29167 5.70001H8.66667V4.8C8.66667 3.8073 9.41417 3 10.3333 3H13.6667C14.5858 3 15.3333 3.8073 15.3333 4.8V5.70001ZM10.3333 5.70001V4.8H13.6667V5.70001H10.3333ZM12.5917 15.042C12.4417 15.105 12.225 15.15 12 15.15C11.775 15.15 11.5583 15.105 11.3583 15.024L2 11.658V18.525C2 19.893 3.025 21 4.29167 21H19.7083C20.975 21 22 19.893 22 18.525V11.658L12.5917 15.042Z" fill="#524151"/>
</svg>
