<svg width="24" height="24" viewBox="0 0 24 24" fill="none" xmlns="http://www.w3.org/2000/svg">
<g clip-path="url(#clip0_170_4)">
<path d="M21.3119 11.4606C20.9723 10.9772 20.5317 10.5845 20.0204 10.3058C20.0617 10.0645 20.0825 9.82005 20.0825 9.57477C20.0825 7.18489 18.1382 5.24055 15.7482 5.24055C15.2912 5.24055 14.8459 5.31036 14.4184 5.4486C13.9478 4.66446 13.3014 3.99739 12.5258 3.49997C11.5702 2.88712 10.4626 2.56317 9.32258 2.56317C6.04687 2.56317 3.38191 5.22813 3.38191 8.50383C3.38191 9.1802 3.49332 9.83809 3.71375 10.4663C2.65781 11.162 2 12.3557 2 13.641C2 15.7357 3.70414 17.4398 5.79875 17.4398H9.33074V17.2306C8.18262 16.3843 7.50648 15.0567 7.50648 13.6174C7.50645 11.9198 8.44703 10.3855 9.96113 9.61325L10.6326 9.27079L11.4046 12.6848H12.5954L13.3674 9.2704L14.0388 9.61282C15.553 10.385 16.4936 11.9195 16.4935 13.6174C16.4935 15.0572 15.8173 16.3852 14.6693 17.2316V17.4397H18.2013C20.2959 17.4397 22 15.7356 22 13.6409C22 12.8554 21.7621 12.1015 21.3119 11.4606Z" fill="#524151"/>
<path d="M13.4974 16.5997L13.7705 16.4272C14.7418 15.8138 15.3217 14.7634 15.3217 13.6174C15.3217 12.6277 14.8892 11.7129 14.1573 11.0904L13.5318 13.8566H10.4682L9.84272 11.0908C9.11088 11.7133 8.67831 12.6279 8.67834 13.6174C8.67834 14.7628 9.25823 15.8129 10.2295 16.4262L10.5026 16.5987V21.4368H13.4974L13.4974 16.5997Z" fill="#524151"/>
</g>
<defs>
<clipPath id="clip0_170_4">
<rect width="20" height="20" fill="white" transform="translate(2 2)"/>
</clipPath>
</defs>
</svg>
