<svg width="24" height="24" viewBox="0 0 24 24" fill="none" xmlns="http://www.w3.org/2000/svg">
<path d="M18.5964 12.8811C18.2731 12.4611 18.3656 12.2743 18.5964 11.8989C18.6006 11.8946 21.2698 8.10086 21.5448 6.81429L21.5465 6.81343C21.6832 6.34457 21.5465 6 20.8857 6H18.6989C18.1422 6 17.8856 6.29571 17.748 6.62657C17.748 6.62657 16.6347 9.36771 15.0596 11.1446C14.5513 11.658 14.3163 11.8226 14.0388 11.8226C13.9021 11.8226 13.6896 11.658 13.6896 11.1891V6.81343C13.6896 6.25114 13.5337 6 13.0729 6H9.63443C9.28525 6 9.07775 6.26229 9.07775 6.50657C9.07775 7.03971 9.86527 7.16229 9.94694 8.66229V11.9169C9.94694 12.63 9.8211 12.7611 9.54193 12.7611C8.79857 12.7611 6.99434 10.0089 5.92514 6.85886C5.7093 6.24771 5.49845 6.00086 4.9376 6.00086H2.75003C2.12584 6.00086 2 6.29657 2 6.62743C2 7.212 2.74336 10.1186 5.45679 13.9586C7.26518 16.5797 9.81194 18 12.1287 18C13.5212 18 13.6912 17.6846 13.6912 17.142C13.6912 14.6374 13.5654 14.4009 14.2629 14.4009C14.5863 14.4009 15.143 14.5654 16.443 15.8297C17.9289 17.3289 18.1731 18 19.0048 18H21.1915C21.8149 18 22.1307 17.6846 21.949 17.0623C21.5332 15.7534 18.7231 13.0611 18.5964 12.8811Z" fill="#524151"/>
</svg>
